<svg height="512pt" viewBox="0 0 512 512" width="512pt" xmlns="http://www.w3.org/2000/svg"><path d="m509.050781 109.65625-106.722656-106.726562c-1.875-1.875-4.421875-2.929688-7.074219-2.929688s-5.195312 1.054688-7.070312 2.929688l-356.464844 356.480468c-1.367188 1.367188-2.308594 3.101563-2.710938 4.992188l-28.789062 135.519531c-.703125 3.3125.316406 6.753906 2.710938 9.148437 1.894531 1.894532 4.445312 2.929688 7.070312 2.929688.691406 0 1.390625-.070312 2.078125-.21875l135.511719-28.792969c1.894531-.398437 3.628906-1.339843 4.996094-2.707031l105.070312-105.078125c2.066406 66.433594 56.75 119.839844 123.671875 119.839844 68.226563 0 123.730469-55.507813 123.730469-123.738281 0-66.921876-53.402344-121.609376-119.832032-123.675782l123.824219-123.828125c3.90625-3.90625 3.90625-10.238281 0-14.144531zm-474.695312 325.820312 42.167969 42.167969-53.542969 11.375zm106.179687 28.566407-40.683594 8.644531-60.539062-60.539062 8.644531-40.691407 15.410157-15.410156c3.148437 6.503906 7.382812 12.472656 12.59375 17.6875 11.753906 11.75 27.070312 18.390625 43.277343 19.027344.632813 16.203125 7.273438 31.523437 19.027344 43.273437 5.210937 5.214844 11.179687 9.449219 17.6875 12.597656zm344.523438-92.738281c0 57.203124-46.53125 103.738281-103.730469 103.738281s-103.734375-46.535157-103.734375-103.738281c0-57.199219 46.535156-103.734376 103.734375-103.734376s103.730469 46.535157 103.730469 103.734376zm-130.984375-120.808594c-.042969.042968-.082031.082031-.121094.125-46.289063 10.492187-82.808594 47.015625-93.304687 93.304687l-89.289063 89.292969c-7.132813-2.125-13.613281-5.984375-18.953125-11.324219-9.363281-9.359375-14.039062-21.992187-13.09375-35.066406l109.398438-109.40625c3.90625-3.90625 3.90625-10.238281 0-14.144531-3.90625-3.902344-10.238282-3.902344-14.144532 0l-109.398437 109.40625c-13.074219.945312-25.707031-3.738282-35.0625-13.09375-5.34375-5.34375-9.203125-11.824219-11.328125-18.957032l316.476562-316.488281 39.222656 39.21875-136.179687 136.1875c-3.90625 3.902344-3.90625 10.234375 0 14.140625 1.953125 1.953125 4.511719 2.929688 7.070313 2.929688 2.558593 0 5.117187-.976563 7.070312-2.929688l136.179688-136.183594 39.21875 39.21875zm0 0"/><path d="m273.488281 248.5c-4.230469 0-8.082031-2.773438-9.453125-6.761719-1.359375-3.957031-.050781-8.472656 3.238282-11.066406 3.242187-2.558594 7.804687-2.847656 11.351562-.742187 3.582031 2.125 5.492188 6.441406 4.664062 10.519531-.933593 4.617187-5.078124 8.050781-9.800781 8.050781zm0 0"/><path d="m399.664062 432.878906h-36.671874c-5.523438 0-10-4.480468-10-10v-23.234375h-23.234376c-5.523437 0-10-4.480469-10-10v-36.675781c0-5.519531 4.476563-10 10-10h23.234376v-23.234375c0-5.519531 4.476562-10 10-10h36.671874c5.523438 0 10 4.480469 10 10v23.234375h23.234376c5.519531 0 10 4.480469 10 10v36.675781c0 5.519531-4.480469 10-10 10h-23.234376v23.234375c0 5.519532-4.476562 10-10 10zm-26.671874-20h16.671874v-23.234375c0-5.523437 4.476563-10 10-10h23.234376v-16.675781h-23.234376c-5.523437 0-10-4.476562-10-10v-23.234375h-16.671874v23.234375c0 5.523438-4.476563 10-10 10h-23.234376v16.675781h23.234376c5.523437 0 10 4.476563 10 10zm0 0"/></svg>